# xmcd CD database file
#
# Track frame offsets:
#	150
#	13177
#	26605
#	45765
#	61351
#	77599
#	91357
#	110249
#	126582
#	144388
#	157293
#	172268
#	187625
#	200458
#
# Disc length: 2828 seconds
#
# Revision: 2
# Processed by: cddbd v1.5.2PL0 Copyright (c) Steve Scherf et al.
# Submitted via: CDex 1.70
#
DISCID=c00b0a0e
DTITLE=Willie Nelson and Merle Haggard - Django and Jimmie
DYEAR=2015
DGENRE=Country
TTITLE0=Django and Jimmie
TTITLE1=It's All Going to Pot (featuring Jamey Johnson)
TTITLE2=Unfair Weather Friend
TTITLE3=Missing Ol' Johnny Cash (featuring Bobby Bare)
TTITLE4=Live This Long
TTITLE5=Alice in Hulaland
TTITLE6=Don't Think Twice, It's All Right
TTITLE7=Family Bible
TTITLE8=It's Only Money
TTITLE9=Swinging Doors
TTITLE10=Where Dreams Come to Die
TTITLE11=Somewhere Between
TTITLE12=Driving the Herd
TTITLE13=The Only Man Wilder Than Me
EXTD=YEAR: 2015
EXTT0=
EXTT1=
EXTT2=
EXTT3=
EXTT4=
EXTT5=
EXTT6=
EXTT7=
EXTT8=
EXTT9=
EXTT10=
EXTT11=
EXTT12=
EXTT13=
PLAYORDER=
